<svg xmlns="http://www.w3.org/2000/svg" viewBox="0 0 150 151.5">
<!-- SVG created with Arrow, by QuiverAI (https://quiver.ai) -->
  <style type="text/css">.cls-0 {fill:#183F5E;}
.cls-1 {fill:#090D1B;}
.cls-2 {fill:#12253C;}
.cls-3 {fill:#FFFFFF;}
.cls-4 {fill:#B04A63;}
.cls-5 {fill:#E57A8D;}
.cls-6 {fill:none;stroke:#090D1B;stroke-width:0.6092;stroke-miterlimit:10;}
.cls-7 {fill:#FCFCFC;}
.cls-8 {fill:none;stroke:#E57A8D;stroke-width:0.3046;stroke-linecap:round;stroke-linejoin:round;stroke-miterlimit:10;}
.cls-9 {fill:#F7B9C4;}
.cls-10 {fill:#F48696;}
.cls-11 {fill:none;stroke:#DC5926;stroke-width:0.3046;stroke-linecap:round;stroke-linejoin:round;stroke-miterlimit:10;}
.cls-12 {fill:#DDE1EE;}
.cls-13 {fill:#DC500A;}
.cls-14 {fill:none;stroke:#090D1B;stroke-width:0.3331;stroke-miterlimit:10;}
.cls-15 {fill:#050505;}
.cls-16 {fill:#FBFBFB;}
.cls-17 {fill:#FAD8D4;}
.cls-18 {fill:#F7A2B0;}
.cls-19 {fill:none;stroke:#DC500A;stroke-width:0.2665;stroke-linecap:round;stroke-linejoin:round;stroke-miterlimit:10;}
.cls-20 {fill:#FADDDA;}
.cls-21 {fill:#ED6B06;}
.cls-22 {fill:#C13600;}
.cls-23 {fill:#942800;}
.cls-24 {fill:none;stroke:#090D1B;stroke-width:0.2665;stroke-miterlimit:10;}
.cls-25 {fill:#050505;stroke:#090D1B;stroke-width:0.2665;stroke-miterlimit:10;}
.cls-26 {fill:none;stroke:#942800;stroke-width:0.2665;stroke-linecap:round;stroke-linejoin:round;stroke-miterlimit:10;}
.cls-27 {fill:#E57A8D;stroke:#090D1B;stroke-width:0.2665;stroke-miterlimit:10;}
.cls-28 {fill:#050505;stroke:#090D1B;stroke-width:0.1666;stroke-miterlimit:10;}
.cls-29 {fill:#FFFFFF;stroke:#090D1B;stroke-width:0.533;stroke-miterlimit:10;}
.cls-30 {fill:none;stroke:#E57A8D;stroke-width:0.2665;stroke-linecap:round;stroke-linejoin:round;stroke-miterlimit:10;}</style>
  <path class="cls-0" d="m135 151.5h-120c-8.3 0-15-6.7-15-15v-121.5c0-8.3 6.7-15 15-15h120c8.3 0 15 6.7 15 15v121.5c0 8.3-6.7 15-15 15z"/>
  <path class="cls-1" d="m149.9 8.8c-1.4-3.3-3.9-5.9-6.9-7.3l-3.2 1.3c1.1 1.2 3.5 4.2 3.5 4.2l-4.2 11.3 4.7 4.2 6.2 2.4v-10.5c0-2-0.4-3.8-0.1-5.6z"/>
  <path class="cls-2" d="m149.2 50.4 0.8-6.9-0.1-18.5-3.4 0.4-2 1.6-1.8 1.3-2.8 2-2.2 3.2-3 5-1.4 1.9 0.1 0.2c1.9 0.2 8-0.6 10.1-1.1l5.7 10.9z"/>
  <path class="cls-2" d="m149.9 58.5-1.5-0.6-0.3 2.7 1.8 4.4v-6.5z"/>
  <path class="cls-2" d="m149.9 78.6-3.5 1 3.5 6.9v-7.9z"/>
  <path class="cls-1" d="m150 70c-0.4-2-2.5-2.2-2.3-3.1 1-3-1.8-2.9-2.6-4.5-0.6-1.2-1.3-2.2-1.2-3 0.3-1.9 1.6-3.9 1.6-3.9s-1.7 2.5-2 3.4c-1.1-1 0.4-3.5 0.5-4.8 0.1-1.7-1.3-3.1-1.3-3.1s1.4 2.1 0.9 3.5c-0.3 0.8-1 3.8-1 3.8-1-2-2.3-7.4-2-11.8-1 4 1.9 11.6 4.7 17.5l-0.4 1c-0.4-0.1-4.4-1.5-4.4-1.5-0.6-2.4-2-6.4-2.4-11.7l0.4-5.4c-1.6 5.5 0.4 9.8 1 15.7l-3.4-1.5-1-1.5c0-1.2-2-8-2.6-9.1 0.5 2.6 3 8.8 2.2 9l-4.7-3.6 3.5 2.6 1.6 3.5 4.8 2 0.6 1.5-4.4-1.5-2.6-3.6 0.5 2 4.5 3.6 1.6-0.1 2 2.7c3.4 0.9 4.3 4 5.3 5.9l-0.3 6.1 1.4 3.8 1.5-1.4v-12.5z"/>
  <path class="cls-1" d="m150 24.5-3.5 0.5 0.9-5s-2-7-1.4-11l1-2 1.5 1 0.9 2.3 0.6 2.2v12z"/>
  <path class="cls-1" d="m148.1 30.1 1.9-0.2v16.2l-2.5-0.1-6-4.9 0.5-1.5 6.1-1.5 0.4-1.6v-3.5l-0.4-2.9z"/>
  <path class="cls-2" d="m150 44.5-1.9-0.5-6.6-4.4-1.9 0.9 8.5 5.5 1.9 1.6v-3.1z"/>
  <path class="cls-1" d="m150 25-2.9-0.5-0.6 0.5h3.5z"/>
  <path class="cls-2" d="m134.9 40.8c1.5 0.1 9.2-0.9 10.7-1.5l4.4-1.5v-1.3l-3.6-0.4-11.5 4.7z"/>
  <path class="cls-3" d="m133.7 40.6c1.8 0.1 9.6-0.6 11.9-1.3l4.4-1.5v-13.3c-3.5-0.1-4.6 0-7 2l-5.4 4.6-2.5 3-1.8 4.4 0.4 2.1z"/>
  <path class="cls-1" d="m135.6 36c1-0.9 12-6.6 14.4-7.5v-0.6c-3.5 1.1-14.1 7.1-14.4 7.7v0.4z"/>
  <path class="cls-1" d="m135.1 37c1-0.1 11.4-4.6 14.9-5.9v-0.1c-3.1 0.5-13.9 5-14.9 6z"/>
  <path class="cls-1" d="m134.7 38c2.4-0.1 11.7-3.6 15.3-4.9v-0.6c-3.6 1.4-13.3 5-15.3 5.5z"/>
  <path class="cls-1" d="m134.7 38.9c2.4 0 11.8-2.4 15.3-3.3v-0.1c-2.9 0-13.3 2.9-15.3 3.4z"/>
  <path class="cls-1" d="m134.2 39.6c1.9 0 12.3-2.1 15.8-3.1v-0.1c-2.5 0.1-13.9 2.6-15.8 3.2z"/>
  <path class="cls-1" d="m137.1 32.1c0.4-0.2 9.4-5.6 11-6.1-2 0.5-10.6 5.5-11 6.1z"/>
  <path class="cls-2" d="m27.5 6.5c-1.6 2-4.8 7 2.5 6.9s5.9 2.1 9 2.1c-2.5 2.4-5.9 9-4 10.4 4.1 2.7 16.5-4 18.3-5.5 1.7-1 8.2 3.5 12.7 4.5s9.6 2.6 11.6 2.2 2 4.8 3.9 4.5c1.9-0.2 0-2.1 2.5-2 1.1 0 3.4-1.2 3.9-2 0.5-1.2-2.8-4.7-1.4-5.6s6.4-2.9 6.1-4.5c-0.2-1.6-1.1-2.6-3.1-2.4-2 0.3-14.9 4.9-21.4 2.8-6.5-2-19.6-7.8-26-9l-14.6-2.4z"/>
  <path class="cls-3" d="m26.5 0c-2.5 0.4-5.1 2.1-5.5 4.7-0.4 2.2 14.1 3.4 18.9 4.3v-0.5l-11-8.5h-2.4z"/>
  <path class="cls-4" d="m28.9 0 11 9 14.6 5 1.6 0.4 6.4 2.7 11 1.9 5 0.4 6.9-0.5 2.7-3.3-0.2-5.1-3.4-4-1-3.6-2.9-2.4-0.7-0.5h-51z"/>
  <path class="cls-5" d="m72.5 0c-1.4 1-2.5 4-2.5 5.6 0 2.3 1.5 3.8 1.5 3.8l-0.1 5.6c0 2.4-0.9 2.9-3.5 2.1-2.5-0.6-4.3-3.2-4-5.6 0.2-2.4 2.1-3.9 4.1-3.4s2.4 1.3 2.4 1.3l0.5-0.8-0.5-1 1 0.3s-1.4-1-1.4-2.3c0.1-2.1 1.1-4.6 2.5-5.6z"/>
  <path class="cls-5" d="m77.4 19.1c-1.3-0.6-3.9-3.6-4.2-4.5l-2.1-4.2 7-5.4 2.3-5 1.6 0.5 2.5 2.4 0.6 3.2 0.9 2.5v4.4l-3.4 2.5-4.1 3.9-1.1-0.3z"/>
  <path class="cls-6" d="m55.1 9c0 3.4 0.3 5.6 4.5 7 5.3 1.9 13.4 3.1 19.3 3.1"/>
  <path class="cls-3" d="m78.9 19.1c3.5 0.3 7.8-0.7 9-2.7v-5.9l-3-3.6 0.6 3 0.4 3.2-3.5 1.5-3.5 2.3-0.8 1.6 0.8 0.6z"/>
  <path class="cls-7" d="m78.9 19.1c-1.5 1.4-1 4.4-0.5 4.4 0.6-1.5 2.1-2.9 3.2-2.9 2.3 0 5.5-2.6 7-4.1l0.3-1-5.3 2.5-4.7 1.1z"/>
  <path class="cls-3" d="m89.4 10c-0.5 0 0 4.6-0.5 6.4 1.5-0.4 2.2-1.4 2.2-3.5 0-1.5-1.2-2.9-1.7-2.9z"/>
  <path class="cls-7" d="m78.9 19.1c-1.5-0.6 1.6-3.2 6.5-5.6l2.5-2 0.5 0.5-2.5 2.6-3.5 1.8-2 1.1-1.5 1.6z"/>
  <path class="cls-5" d="m78.4 19.1c0.5-2.1 3.2-2.6 4.5-2.6 1.6-0.1 5-2.9 5-4 1.2 0.4 1 2.6 0.5 3-2.5 1.9-6.5 3.6-10 3.6z"/>
  <path class="cls-6" d="m64.4 17.5c-2.5-0.4-9.5-3-9.5-8 0-3.1 3.1-6.5 8.2-6.6 2.8 0 2.4-1.5 2.4-2.9"/>
  <path class="cls-3" d="m65.5 0c0 1.9-0.1 2.9-2.5 2.9-3.1 0-8.1 2.2-8.1 6.5 0 2.6 0.5 4.1 1.2 5l-1.6-0.4-5.5-1.5-4.4-2-1.5-0.9c2.3 0.5 7.8 3.5 12.9 4.4-1.1-1-1.1-3.1-1.1-4.5 0-3.1 3.2-6.9 8.1-6.6 2.9 0.1 2.5-1.4 2.5-2.9z"/>
  <path class="cls-8" d="m62.4 8.4c-0.5 1-0.5 4.1 0.5 5l1.5 1.6"/>
  <path class="cls-9" d="m10.5 3.5-1 0.5-0.4-2.1-1.1-0.9s-2.1 1-3.5 2.4c-1.4 1.2-2.5 2.1-2.5 2.1l-1.5 3.9 1 2 2 0.1 2-0.6 2 1.1h0.4l0.1-0.1v0.1h0.5l0.6-1.1h0.4l0.4-0.9 0.1-0.1h-0.5l0.1-0.4h-0.1 0.4l-0.4-0.1 0.1-0.3h0.4l-0.4-0.1 0.3-0.6-1-0.9h1.1l1.5-1.5-0.1-1.6-0.5-1-0.4 0.1z"/>
  <path class="cls-10" d="m7.5 5v-1l-1-1-0.5 1.5-0.5-1-0.5 1.5-1-0.5 0.5 1.5-1.5-0.5 0.5 1.4-1 0.6 2 0.5-0.5 1 1.5-0.5 0.5 1.4 1-0.9 1 0.4-0.5-0.9 1.6-0.5-1.1-1 1.5-0.1-1-0.4 0.6-0.5h-1.6l1.4-1h-1.4z"/>
  <path class="cls-9" d="m18 14.9-0.9 0.7-0.1 1.4 0.5 1 0.5 0.1v0.4l0.6 1 0.5 0.4 0.3 0.1 0.6-0.5h1.1l1-0.5-0.2-0.6 1.2-1.5v-0.4l-1.1-0.1-0.9-0.5 0.5-1h-1.1l-0.5-0.9-0.6 0.4-0.4-0.4-1 0.9z"/>
  <path class="cls-10" d="m18.5 15.5-0.5 1 0.1 0.9 0.9 0.6 0.1-1 0.9 0.5-0.5-1 1.1-0.1-1.1-0.5-0.1-0.9-0.4 0.5h-0.5z"/>
  <path class="cls-9" d="m14.5 20.9-1 0.6-0.1 1.4-0.4 0.6 0.1 0.9 0.8 1.1 0.6-0.5 0.1 0.9 2 0.5 0.9-0.4 0.6-0.5 1-1.5 0.4-1-1-0.5-0.6 0.4 0.1-1.9-1-0.4-1.5 0.4-1-0.1z"/>
  <path class="cls-10" d="m15.5 22-0.5 1 0.6 1h0.9v-1h1l-1-0.6v-0.4h-1z"/>
  <path class="cls-9" d="m5.1 18.9-0.5 0.6 0.3 1-1.9 0.1v0.4l0.1 0.9 0.5 1.1-0.1 1 1 0.9 1 0.1 1-0.1 0.6-0.5 1.4 0.5 0.5-0.9-0.4-0.6-0.7-0.9 0.2-1-1.6-2.1-0.5 0.1-0.9-0.6z"/>
  <path class="cls-10" d="m5 20.5 0.6 1.5 1.4 1.5 0.5-0.5-0.6-1.1-0.4-1.9-0.9-0.5-0.6 1z"/>
  <path class="cls-9" d="m1 27.5-1-0.1v4.6l1.6 0.4h0.9v-3.4l-1.5-1.5z"/>
  <path class="cls-9" d="m5.4 26.5v1.9l-0.4 0.6 0.5 1 1 0.9 0.5 1.1 0.5 0.9 1.1 0.1 1.8-1h1l1.1-1.1-1-1.9-1-3-1-0.5-0.9 0.5-1.1-0.5-0.4 1h-1.7z"/>
  <path class="cls-10" d="m7.5 28-0.5 0.9 0.5 1.1 0.6-0.5 0.4-1.5h-1z"/>
  <path class="cls-9" d="m6.4 39.5-0.3 0.5 0.4 1.4 1.5 1.6 1 0.1 0.9-0.1 1.6-1.1-0.5-2.9-1-1-0.5 0.5-0.5-0.5-1.5 1.5h-1.1z"/>
  <path class="cls-10" d="m8.5 39.5-0.5 1 0.1 0.9 0.9 0.5 0.5-0.9-0.4-1.1-0.6-0.4z"/>
  <path class="cls-9" d="m19.9 37.5-0.5 1v1.5l0.6 1.4 1-1.4 0.5-1.5-0.1-1.5-0.9-0.5-0.6 1z"/>
  <path class="cls-1" d="m12.4 31.9 0.1 0.7-2.5-0.6c-0.6 0.9-1.5 1-2 1 0 0.4-0.9 2.5-0.5 3.9 0.4 1.5 0.4 3.1 0.4 3.1l-0.4-1.5v-2.1l0.5-3.4-0.9-1.5-2.1 1h-4.9v0.5l3.4 0.4 1.5 5 0.9 2-0.5 4.1-1.9 4.5 1.5-0.5 1-6-1-5-1-4 2.5-1 1.5 0.5h2l1.5-0.5 1 0.5 5.9 5 1 1-0.3-1.1-6.1-4.9 0.4-1-1-0.1z"/>
  <path class="cls-1" d="m19 35.5-0.4 0.5 0.8 3 0.6 2-0.9 1.5-1.6 1.5-4.1 6.5h1.5l1.6-3.6 1.4-2.4 2.2-1.5 0.4-1.1-1.1-3.9-0.4-2.5z"/>
  <path class="cls-1" d="m11.6 24.5-1.5 1.9 0.4 1 1.5 0.6-1.5-1.1 1.9-2.4h-0.8z"/>
  <path class="cls-1" d="m8.5 12.9 1 2 0.5 3.5v5.6 0.9 0.1-1-5.6l-1.5-5v-0.5z"/>
  <path class="cls-1" d="m5.4 10.9-0.4 2.5 0.4 2.6 0.2-0.5-0.1-3 1-0.5-1.1-1.1z"/>
  <path class="cls-1" d="m15 26.5-1.9 3.9 0.3 2.1-0.4 0.5h0.4l0.1-2.6 1.9-3.9h-0.4z"/>
  <path class="cls-1" d="m19.1 30 0.3 0.5 1.1 1 0.9 2.5v3l0.1 1 0.5-2.1-0.6-3.4-1.4-2-0.9-1.5-0.6 0.4 0.6 0.6z"/>
  <path class="cls-1" d="m23 37.5-0.6 1.9-2.4 3.1-2.5 0.6v1.4l1-1 2.5-1.5 2-3v-1.5z"/>
  <path class="cls-1" d="m10 43.5-2 0.5-1.5 3.5v0.5l1-2 0.5-1.5 2-1z"/>
  <path class="cls-2" d="m0 49v13.9l6.1 4.1 3.3-0.6 8.1 0.5 1.5 0.6-3-3.5-10.5-9.5-2.5-0.5-2.5 0.5-0.4 0.5-0.1-0.5v-5.5z"/>
  <path class="cls-2" d="m0.1 78.5 3.3 3 4.1 3.5 0.4 1-3.4 0.9-0.5 1.1 4 0.9 0.5 1.5c-2.1 1.1-6 1.5-8.5 1.6v-13.5h0.1z"/>
  <path class="cls-1" d="m0 70 2.5 3.5 0.5 2.5-0.5 3.5 0.5-0.5v-4l-1-3.5-2-2.5v1z"/>
  <path class="cls-2" d="m17 81-1.5 9-4 11 0.5 9 1.1-0.1-1.1-4.4 1.5-8.6 3.6-7.4 1.9-6.5-2-2z"/>
  <path class="cls-1" d="m14 80 3 2-0.5 6-4 9.5-1 3-0.5-1.5-1 1 0.4 8.9-1-0.4 0.1-6-0.5-9 0.4-7.1 0.6-2.4-0.5-8.5-1.6-3 1.6-5-1 4.5 1.5 3.5v8.5l-1 9 1 7 1.5 0.5 2.5-5.5 2-4.5 1.1-5.5 0.4-3-3.5-2z"/>
  <path class="cls-2" d="m24 151.5 2-7.5-2.5-16 1.5-1.6 6.5-6.8v1.4l-0.5 6.5 3 3.5 8.5 4.5 5.5 4-2 7h-2-5.5l-8-1.6-4.5 1.1-0.5 5.5h-1.5z"/>
  <path class="cls-1" d="m42.5 148-4.5 3.5h0.5l4.5-3.5h-0.5z"/>
  <path class="cls-1" d="m42 104.5-7.5 7-4.5 2.5 0.5-0.5 4-2.5 7.5-6.5z"/>
  <path class="cls-1" d="m42.5 87.5-3.1 5.4-4.9 4-2 2-1.5 4.6-2.5 5.4-0.5-0.4 2-3.5h0.5l2.9-7 3.1-4.6 1.5-3.9 1-4.5-1.1 5.5-3.4 6h-0.5l0.5 1 2-2 6-8z"/>
  <path class="cls-1" d="m30.1 91.5 3.4 2.4 1 3v-0.9l-1-2.5-3.4-2z"/>
  <path class="cls-1" d="m41.9 91-3.4 2.4-0.5 0.6h0.5l3.5-2.5-0.1-0.5z"/>
  <path class="cls-1" d="m35.5 101-3.5 1.5v0.4l3.5-1.9z"/>
  <path class="cls-1" d="m37.9 109.5-1.4-0.1-0.4 0.5 1.8-0.4z"/>
  <path class="cls-1" d="m22.4 80 0.6 4-2.5 2.9-3.5 2.6-1.1 4-0.4 0.4 1.5-0.9 0.5-1v-0.5l1-2 3-2.1 0.9-0.5 1.1 7.6 0.5 6.9 0.9 0.1 1.6-4.6 1-5-0.5-2.5-1.1-1.4h-0.4l1.5 3.5-1.1 4.5-0.9 0.5-0.5 1-2-11.5 1.5-0.5-1.5 0.4 0.5-1.9-0.6-4z"/>
  <path class="cls-1" d="m17.5 93 1 2.9 3 4.1-2.5-4.1 1-1.4-1 1-1.5-2.5z"/>
  <path class="cls-1" d="m0 87.5 3.5 7 0.5 7.5-1 3-0.5 0.5h0.5l1-3v-7l-1-4-3-5v1z"/>
  <path class="cls-2" d="m6.5 150v-5l2-8-8.4-0.1v1.6l2.9 5 1.5 5.4 2 1.1z"/>
  <path class="cls-2" d="m16 151.5 1-1.5 7-2 0.5 3.5h-8.5z"/>
  <path class="cls-1" d="m0 109 0.5-1-0.5-1.1v2.1z"/>
  <path class="cls-1" d="m14.1 80-1.1 0.4 0.5 0.1 0.6-0.5z"/>
  <path class="cls-1" d="m15 67-1.5 0.5-1.5 11.5-1.5 4.5 0.4 0.5 2.1-6 2-11z"/>
  <path class="cls-1" d="m14.5 71-1 5.5 0.6-0.5 0.4-5z"/>
  <path class="cls-2" d="m22.4 51.5c2.1 0 9.7 0.5 10.6-2l2 2.5 6.5 6-14.5-1-4.6-4v-1.5z"/>
  <path class="cls-2" d="m48.5 96c-0.6 2.1-3.1 7-1 7 2.5 0.1 9.4-2 11.4-6.1 2-4.3 2.1-3.9 4.1-3.8 2 0.3 3.5 0.9 6.5 0.4s7.5 0.9 10.5 0.5 7.5-5.5 7.1-8c-0.6-2.5-2.6-4.5-6.2-4.5l-16.9 3.4-8.5 2.1-4.5 2-2.5 7z"/>
  <path class="cls-2" d="m103.5 62c0 2-0.6 3.5 1.5 4.5s4 3.5 6.5 3.1c2.5-0.5 5-1.1 6-0.6s3.5 1.4 3.5 1.4l-0.5-1.9-5.6-5.5-2.9-3-5.5-0.6-3 2.6z"/>
  <path class="cls-2" d="m94.5 27.5c-1.6 1.1-2 4-0.6 5.1 1.6 1.9 3.2 2.4 4.6 3.5l5 3.9 1.5-5-0.5-2.9-4.5-3.1-3.5-2.5-2 1z"/>
  <path class="cls-2" d="m84.5 104c-0.1 1.6 1.1 7.5 2.4 7.5 2.6 0 2.2-1.5 3-1.5 6.1 2.5 9.6 3.5 14.6 2.9 2 0 5 4.2 7 5.7l3-4.7-2.5-4.9-3.1-1.5-5.5-0.4-9.4-1.2-5.5-2.9-4 1z"/>
  <path class="cls-2" d="m114 66.5 2.5 2 5 1.5 1-0.5-3.5-2-3-1.5-2 0.5z"/>
  <path class="cls-2" d="m125.5 60-8 7 3 2 7-4 2.5-3.6-4.5-1.4z"/>
  <path class="cls-2" d="m140 50-11.5 5.5 1.5 4.5 6.1-1.5 3.9-2.1v-6.4z"/>
  <path class="cls-2" d="m117.1 117 5.4-2.1 5 1.6h3l1.5-4 10.5-5-1-2.5-2-2-3-0.5-4 1.5-7.5 2.4-6 0.5-2.5 0.6-0.6 5.5 1.2 4z"/>
  <path class="cls-2" d="m145.9 104-3.4 2 3 5.5 3 4 1.4-1.6 0.1-13.9-2.5-0.5-1.6 4.5z"/>
  <path class="cls-2" d="m136.5 134.9 6.5 3.5c2 2 1.6 9.5 1 10.6l2.9-3 1.6-3 0.6-2.1 0.4-5.4-1-2.6-5.5-0.5-6.5 2.5z"/>
  <path class="cls-1" d="m87.9 19c0.6 1 2.6 3.5 3.6 3v-0.5c-1.5 0.4-2.6-1-3.6-2.5z"/>
  <path class="cls-13" d="m90.5 15.5 1.6 1-0.2-0.5-1.4-1v0.5z"/>
  <path class="cls-3" d="m34.5 15c-1 1-2.5 2.5-1.5 4 1 1.9 4.1 1 8.1 0s8.4-2.6 11.4-4.6l0.5-0.5-4.9-1.9-4.1-1.5-5-0.5c-2.5 0-3.5 2.5-4.5 5z"/>
  <path class="cls-9" d="m32.9 18h6.6l7.6-2 5.9-2-1-0.1-8 2.5-4.5 1.1-6.6 0.5z"/>
  <path class="cls-9" d="m33.5 16h6l5.5-1 6-1.1-5 0.6-6.5 1h-5.5l-0.5 0.5z"/>
  <path class="cls-9" d="m34.5 14 5 0.5 8-0.6 2.5-0.4h-5l-7-0.5-3-0.1-0.5 1.1z"/>
  <path class="cls-9" d="m36 11.9 5.5 0.6 7.5 0.4-2.5-0.9-10-0.5-0.5 0.4z"/>
  <path class="cls-9" d="m8.5 13.5v-0.5l0.5-0.1 0.9 0.1-0.4 0.9-1-0.4z"/>
  <path class="cls-9" d="m0 50.5v5l2.5-1.1-1-2.9-1.5-1z"/>
  <path class="cls-3" d="m0 39.4v9.6l2.5 5 3.4 3.9 3.2 2.6 5.9 3.5 2.5 2.9 11 9.1 7 4.4c3.9 2.1 10.4 3.6 13 4.1l4 1.9 7.9 0.5 3.6 0.2 6.5-0.1 8.5-2.1 4.5-1.4 2.5-2 1.1-2 0.3-1.6-0.9-4.4-1-0.1-1.5 0.5-4-3.4-6-4-4.5-2-6.4-2.1-5.6-1.4-4.5-1-7.5-1.5-12.1-1.5-7.5-1-10.4-3.1-6.4-2.9-4-4.5-5.1-6.1z"/>
  <path class="cls-12" d="m28.5 76 7 4.4c3.9 2.1 10.4 3.6 13 4.1l4 1.9 7.9 0.5h1.6l-2.5-2.4-1-3.5-2-0.6-6-1.5-7-4.5-4 2.1c-2.4 1.4-5.4-2-5.4-2l-0.1-1c-1.5-0.5-2.5-3-2.5-3l-3 5.5z"/>
  <path class="cls-13" d="m0 39.4v9.6l4 6.5 2.1 2.4 7 4.6 3.4 2 11 9.5 2.5 2 1.9-0.5-0.3-2.5-1.1-0.6 1-1.9-0.6-3 1.6-2-1-1.5 0.5-2.5-0.5-1 0.5-1.5 1.5-1.5-9.4-1.6-11-3.9-4-2-9.1-10.6z"/>
  <path class="cls-3" d="m16.5 67-13-0.6 2.1-4.4 0.4-2 3.5 1.4 5 3.1 3 2.4-1 0.1z"/>
  <path class="cls-12" d="m4.5 64 3-0.1 6.5 1.1 2.5 1.5 1 0.4-4-2.9-4-2.6-3.5-1.4-0.5 1.4-1 2.6z"/>
  <path class="cls-3" d="m16.5 80 1.6-4 1.9-3.5 1.5-1.1 6 4.1 6 4.5c-3 1-13.5 1-17 0z"/>
  <path class="cls-12" d="m17.1 78 1-1h8.4l5 1.5 1.5 1.5-9-1.5-6.9-0.5z"/>
  <path class="cls-3" d="m12.5 50.9 5.6 0.5 4.3 0.1 6.1 0.9 4.5 1.1 5.5 3-5.5 0.5-6.9-1-8-2.6-5.6-2.5z"/>
  <path class="cls-14" d="m22.5 51.5 4 2 4 2.5"/>
  <path class="cls-11" d="m87.1 61c3-0.6 4.4-1.5 12.8-1.6 1 0 0.6-0.5-0.4-0.5-4-0.4-8-0.5-11.1 0"/>
  <path class="cls-3" d="m115 0v5l1 5.9 1.1 0.6 3.9-5.5 6-6h-12z"/>
  <path class="cls-9" d="m115.5 0v5l1 5.9 1-0.5 3-4.4 5-6h-10z"/>
  <path class="cls-13" d="m107.1 29.9-3.1 6.1-1.5 5v4l-0.6 3-1.4 2.4-1.4 0.6c-0.2 1 0.4 3 0.9 4l-0.1 2.9 1.1 1.1 2.5 1 5 0.5 3 0.5 1 1v-1l-1.5-1.5 6.5-2.6 5-3.5 5-4.5 2.5-5 4.5-6.4 2-4 3.5-5 1.9-4.5 2.6-8 2.4-10-0.4-1-2-2-3.4-1.6-3.1-0.5-8.5-0.9-3.4 0.4-4.6 4.7-5 6.3-4 6.6-3.5 6.9-1.9 5z"/>
  <path class="cls-3" d="m106.9 30.5-2.9 5.5 2-1.1 1.5-0.4 0.4 0.5 0.1 1.5 1 1.5 1.5 1 1 1v0.4l3.5-0.5c1.9-0.4 4.4 1.6 4.5 3.1 0.5 1.5 0.4 3.5 0.4 3.5l2-0.1 1.6 1.1-0.5 3-0.5 1.4 4-3 3-3.9 1-2.5 2-3 2.5-3 0.5-2 4-5 2-5 2-5.5 1-3-1-2.5-0.5-0.5-0.1-1 0.6-2-1-1.1h-2l-1.5 0.1-0.5 0.5v2.5l-1.4 2.5-1.1 1.9 0.9 0.6-0.4 0.5h-1l-2-1.5-0.1 3-3.4 1-1.5-2-2 1.5-2 4-2.6 5.5-1.4 5.5-1 1.5-2-1-2-1.5-3-1.5-3.5-0.5-1.1-1h-1z"/>
  <path class="cls-15" d="m102.5 39.5c-1 0.5-1.4 3.5 0 5l1-2-1-3z"/>
  <path class="cls-16" d="m101 49.9-1.9 1.1c-0.6 1.5 0.9 4 0.9 4l-0.1 2.9 1.6 1.1 2.5 1 4.5 0.6 2.5 0.4 1.5 1v-1l-1.5-1.5 2.5-1-4-0.5-5-1.1-3-2.4-0.5-2.6v-2z"/>
  <path class="cls-3" d="m121.5 31.5v-1l1.5-5.5 3-7 4-7.1 4-5.9 3-5h-1.5l-2 3-3 5-4 6.9-3 7-2.4 6.1 0.4 3.5z"/>
  <path class="cls-12" d="m138.5 3.5 1 6.5 0.5 2-3.5 5.5 2.5 2 1.5 1.5 0.4 4 1.1-0.5 1-3 1-6-0.6-2-0.5-0.5v-3.5l-0.4-0.6h-3l-0.5 0.1-0.5-5.5z"/>
  <path class="cls-3" d="m100 55.5 0.5 2c1 1 3.5 2.4 5.5 2.5 2 0.4 4-0.1 5 0l1 0.5 0.5-1-1.6-0.1-3.4-0.4-3.5-0.1-2.5-1.4-1.5-2z"/>
  <path class="cls-3" d="m101 51.5 1 2.4 4.5 1.1 2.5 1.9 3.5 0.6h3l3-1.5 2-1.5-1-1.5-4.5 3-4-0.1-5-2.5-3-1-1.5-3.4-0.5 2.5z"/>
  <path class="cls-15" d="m117.1 49.5c0 1.5 1.4 4 3.4 4l2-1.5 0.5-2.5-1.5-2.1-2-0.5-2.4 2.6z"/>
  <path class="cls-3" d="m117.5 49.5c0 1.5 1 3 2.4 3 1.5 0 3.1-1 3.1-2.6 0-1.5-1.1-2.5-2.5-2.5-1.6 0-3 1.1-3 2.1z"/>
  <path class="cls-15" d="m118 50.4c0 1.1 0.5 2 1.9 2 1.2 0 2.2-0.9 2.2-1.9s-0.6-2.5-2.1-2.1c-1.5 0-2 1-2 2z"/>
  <path class="cls-17" d="m0 76v10.9l3.1-0.4 4.4-1v-1l-4.4-3.5-3.1-5z"/>
  <path class="cls-3" d="m0 105v31.9l5.5 0.6 7.9-0.1 6.6 2 7.5 3.6 4 1.5 5.5 1.9 9.5 0.6 4-0.6 3.4-1.5 1.6-2 0.6-4.4-2.1-3.5-4.5-4.5-4.5-5-4.5-3.5-7-3.1-4.4-1.4-6.7-2.6-8.3-3.5-8.6-2.9-5.5-1.5v-2z"/>
  <path class="cls-12" d="m10.5 120v3.4l0.5 4.1 0.5 0.5 1.5 5.5 2.5 2.9 4.5 2.6 7.5 4-3-3.1-1-5.5-3-3.4-4-5v-0.5l-6-5.5z"/>
  <path class="cls-3" d="m0 107v29.9l5.5 0.6 7.9-0.1-3.9-2.9-6.4-7-3.1-5v-15.5z"/>
  <path class="cls-18" d="m0 137.5v1.9l4 8.6 2.1 1-1.6-5.1-2-4-2.5-2.4z"/>
  <path class="cls-17" d="m0 138.9 3.5 9.6 1 0.4-1.4-5.4-3.1-6v1.4z"/>
  <path class="cls-3" d="m0 149v2.5h13.5l-4-1-3-1.5-6.5-2.1v2.1z"/>
  <path class="cls-21" d="m18.5 126c-0.4 0.5-0.4 4.4 0.5 7.5 0.5 1.4 4 0.9 4 1.4l0.5 2 1-1.9 3-3.6 3-2.9 0.4-4 1.6-0.5v-5l-8.5-3-0.5 1-2 1.5-2 0.5-0.5 3-1.5 1.5 1 2.5z"/>
  <path class="cls-22" d="m18.5 126c-0.4 0.5-0.4 4.4 0.5 7.5 0.5 1.4 2.4 0 3.5 1l0.6 3 1.4-2.5 2-2.6-2-1.5-3 2.6 2-2.6-1-1.9-3.5 1 2.5-0.5 0.5-0.6 0.5-2.9h-2l-1 0.5 2-1-3-1.5 1.5-1.1-0.5-0.4-2 1v1.4l1 1.1z"/>
  <path class="cls-21" d="m1.5 124.5 7 7.9 2 1.5 6 3.6-4-3-3.4-3.1-3.6-3.9-4-3z"/>
  <path class="cls-23" d="m0 122.5 1.5 2 4 3 3.6 3.9 4 3.5-2.6-1-3.4-3.4-5.6-6-1.5-2z"/>
  <path class="cls-21" d="m0.5 118.9v2.6l2 3 2 1.5 4.6 4.9 1.4 0.5 0.5 0.5 0.5-0.4 0.5-0.5-0.1-3-1.4-1.1v-5.9l1.5-3.1-0.1-0.9-2.4-2.5 0.5-1 1.5-1.5-3-1.5-3.5-1-0.5 1-1 0.9-1.5 3.5v1.6l-1.5 2.4z"/>
  <path class="cls-22" d="m0.5 118.9v2.6l1.5 2.5 2 1.5 1.5 1.4 2-0.9 0.5 1.5-0.5 1.5 2 2 1 0.4 0.5 0.5 0.5-0.4 0.5-1-0.1-2.5-1.9-0.5-0.9-2.5-1.6 0.5-1-2-1-0.6-1.5 0.1-1.5 0.9 1.5-1.4v-2.5l-2.5 1.5 2-2.5-3-0.1z"/>
  <path class="cls-3" d="m89.5 140-3-3.5-7.1 15h4.6l9-6.5-0.1-1-3.4-4z"/>
  <path class="cls-18" d="m87.1 137.5-6.1 14h1.1l5.8-13-0.8-1z"/>
  <path class="cls-18" d="m87.9 138.5-5 13h0.6l5.4-11.5-1-1.5z"/>
  <path class="cls-18" d="m89.5 141-5.5 10.5 6-9.5-0.5-1z"/>
  <path class="cls-18" d="m90.5 142-4.6 8 5.1-7-0.5-1z"/>
  <path class="cls-18" d="m91.5 143.5-5 6.5 5.6-5.5-0.6-1z"/>
  <path class="cls-3" d="m86.5 151.5h23l2.6-4.5c1.3-1.5 2.4-2 2.8-4l-0.4-3.5 4-0.1 7.5 0.6 4.5-0.5 2-0.6-1-0.9-3.5-2-4-3.5-3-3-1-1.5-0.5-2-2.5-7.5-0.5-4.5v-4.5l1-2-3 1.5-3 6.5-1.5 4.5-0.1 12.9-0.9 1.6-3 2.4-8.9 5.1-6.6 4.4-5 3.5 1 1.6z"/>
  <path class="cls-17" d="m117.5 107.5-3 1.5-3 5.5 3.4 3 3.2 10 1.9 0.5 1.5 2 5 5 6 3.9-2 0.6-4.5 0.5-7.5-0.6-4 0.1v3.5l-2 1.5-3 7h-1.5l4.5-8 1-6 3.6-10-0.6-9 1-11z"/>
  <path class="cls-18" d="m86.5 151.5 13.4-8.6 13.6-10.4 1.5-4.5 2.1-7-2.6 5.9-2.5 5.6-9 6.4-9 5.6-8.5 5.5 1 1.5z"/>
  <path class="cls-3" d="m87.5 151.5h14.6l0.4-6.5-2-2.5-9 5.5-5 3 1 0.5z"/>
  <path class="cls-18" d="m102 151.5h3.5l2.5-2-0.9-3.5 0.4-3-2 0.9-3 0.6v3.5l-0.5 3.5z"/>
  <path class="cls-18" d="m101.5 143 1 1.5 3-0.6 2-0.9-2 1-3 0.5-1-1.5z"/>
  <path class="cls-3" d="m108.5 151.5h4l0.5-1c0.5-1.5 0.5-4-1-3.5l-3.5 4.5z"/>
  <path class="cls-18" d="m107.1 138.9-1.2 0.6 0.1 2 0.5 2.5 0.6 1.5 2.4 0.9 2-0.9 1.6-3.5-0.1-2-0.5-2-1.5 0.5-1 2-0.5-1.6h-2.4z"/>
  <path class="cls-17" d="m103.4 87.5 2.6-3.5 1.5-2.5 2.5-2.6 2.5-2h1v1.1l2 4 1.6 3-2.6 1-2 2-5.4-0.5h-3.7z"/>
  <path class="cls-9" d="m105 86.9 7.5-7.4-6.6 7.4h-0.9z"/>
  <path class="cls-9" d="m105.9 86.9 7.6-8-7 8h-0.6z"/>
  <path class="cls-9" d="m106.5 86.9 7.5-7.4-6.5 7.4h-1z"/>
  <path class="cls-9" d="m107.5 86.9 7-6.4-6 6.4h-1z"/>
  <path class="cls-9" d="m109 86.9 5.9-5.4-5.4 5.4h-0.5z"/>
  <path class="cls-9" d="m110 86.9 5-3.4-4 3.4h-1z"/>
  <path class="cls-9" d="m111.5 86.9 4.4-2.9-3.4 2.9h-1z"/>
  <path class="cls-9" d="m112.5 87.5 4-2.5-3 2.5h-1z"/>
  <path class="cls-17" d="m118.5 89.4 9-4.4 3.5-0.6 0.5 3.1 3 4-1 1.4-4.5-0.4-7.5-2.1-3-1z"/>
  <path class="cls-9" d="m120.5 89.4 10-4.4-9 4.5-1-0.1z"/>
  <path class="cls-9" d="m121.9 90 9.6-4.1-9 4.1h-0.6z"/>
  <path class="cls-9" d="m123 90.4 8.5-3.9-8 3.9h-0.5z"/>
  <path class="cls-9" d="m124.5 90.4 7-2.9-6.5 3-0.5-0.1z"/>
  <path class="cls-9" d="m125.5 91 7-2.5-6.4 2.5h-0.6z"/>
  <path class="cls-9" d="m126.5 91.5 6.5-2-5.9 2h-0.6z"/>
  <path class="cls-9" d="m127.5 91.9 6-1.5-5.4 1.6-0.6-0.1z"/>
  <path class="cls-9" d="m129 92.5 5.5-1-5 1h-0.5z"/>
  <path class="cls-17" d="m137.5 102 6-4.5 6.5-6v1.5l-1.9 3 0.4 3-10 2.5-1 0.5z"/>
  <path class="cls-12" d="m139 101.5 8.1-6.5-7.1 6.4-1 0.1z"/>
  <path class="cls-12" d="m140.5 101 6-5-5 5h-1z"/>
  <path class="cls-12" d="m142 100.5 4.5-3.6-3.5 3.6h-1z"/>
  <path class="cls-12" d="m143.5 100 3.6-2.5-2.6 2.5h-1z"/>
  <path class="cls-12" d="m145 99.5 2.5-1.5-1.4 1.5h-1.1z"/>
  <path class="cls-9" d="m118.1 107.4 12.4-2.9 0.5 3.5v5.5l-1.5 0.4-4.5-1.4-3-1.5-3.9-3.6z"/>
  <path class="cls-17" d="m120.5 107.5 10-1.5-9 1.5h-1z"/>
  <path class="cls-17" d="m121.5 107.9 9-0.9-8 1.5-1-0.6z"/>
  <path class="cls-17" d="m122.5 108.5 8.5-0.5-7.5 1-1-0.5z"/>
  <path class="cls-17" d="m124 109 7-0.1-6 0.6-1-0.5z"/>
  <path class="cls-17" d="m125 109.5h6l-5 0.5-1-0.5z"/>
  <path class="cls-17" d="m126.1 110h4.9l-3.9 0.5-1-0.5z"/>
  <path class="cls-17" d="m127.1 110.5h3.9l-2.9 0.5-1-0.5z"/>
  <path class="cls-17" d="m128.1 110.9 2.9 0.1-2 0.5-0.9-0.6z"/>
  <path class="cls-9" d="m105.5 107.5 9 1.4-2.5 6.6-3.9-4.5-2.6-3.5z"/>
  <path class="cls-17" d="m106.5 108.5 7 2-6.4-1.6-0.6-0.4z"/>
  <path class="cls-17" d="m107.1 109.5 6 2-5.6-1.6-0.4-0.4z"/>
  <path class="cls-17" d="m107.5 110 5 3-4.5-2.5-0.5-0.5z"/>
  <path class="cls-17" d="m108.1 110.9 4.4 3.1-4-2.5-0.4-0.6z"/>
  <path class="cls-18" d="m113 135 0.5-1 1-0.5 1.6 1 0.4 2-0.4 0.4 1 0.6-2.1 1-1.9 1-0.1-1-1.5-1-0.4-1 0.9-1 1-0.5z"/>
  <path class="cls-18" d="m105.5 139.5 1 1.5 0.6 3 1.4-1.1 0.5-0.9-0.5-2 0.5-0.5v-0.6l-2.5-0.5-1 1.1z"/>
  <path class="cls-18" d="m102.5 144.5v2.4l0.5 1.6 1.5 0.4 1-0.9-0.5-0.5 2.1-0.5-0.6-1.5-1-1.5-3 0.5z"/>
  <path class="cls-18" d="m109 143 1 3 2.1-1 0.9-2.5-0.9-2-2.1 0.5-1 2z"/>
  <path class="cls-21" d="m48 128-3.5-2.5c-1.5 0.5-2.5 2-2.5 3.5-1.5-1-4-1.5-5.5 0.9-0.5 1-0.4 3.6 0.6 5.6l-1.6-0.5c-2.5-1.1-3.5 2-2.5 5 1 2.5 3.1 1 3.1 1l5.9 5 4.5 0.4 4-0.4 3.5-1.5 1.5-1.6 0.5-4.9-2.5-4.1-3.5-3.4-2-2.5z"/>
  <path class="cls-3" d="m28.5 129.9-4.5 4.1c-0.9 2.5-0.9 6 1.5 8 2.4 1.9 8.5 4.5 13.5 4.5h6l1.5-0.5h-1.5c-2.5 0.5-4-1-2.5-4l-0.5-3-2.5-1.1-3 2-0.4-1.4 0.4-2.5-0.4-1.1h0.4v-1.5l-0.4-2.4 0.9-2 1.5-0.5 3 0.4 0.5 0.1 0.5-1.5 2-2c-1.5-1.5-4.5-3.5-6-4-2 0.4-3.5 3.5-3.5 6-3 0-5.9 2-6.5 3v-0.6z"/>
  <path class="cls-24" d="m28.5 130.9c-2 1.1-4.4 3.1-4.5 5.1-0.5 3.5 0.5 5.4 4.5 7.5"/>
  <path class="cls-25" d="m47.1 127.5c1.4 0.5 2.9 2.5 2.9 3.5l-1.5-1.1-1.4-2.4z"/>
  <path class="cls-26" d="m30 134.5c-1.5 1-2 2.4-1.5 4l3 5.5"/>
  <path class="cls-29" d="m36.5 141c0 2 4.4 3 5.5 1 1.1-2.1-0.5-4-2.5-4s-3 1-3 3z"/>
  <path class="cls-15" d="m37.5 140.9c0 1.5 2.9 2.1 3.6 1 0.9-1.5-0.1-2.9-1.6-2.9s-2 0.5-2 1.9z"/>
  <path class="cls-3" d="m37.9 139.5 0.6-0.6 0.5 0.1v0.5l-0.5 0.5-0.6-0.5z"/>
  <path class="cls-21" d="m44.5 145.9 2 0.1 3-0.1 3.5-1.4 2.5-2 0.5-1.5-2.9 2.9-3.1 1.6h-2.5l-3 0.4z"/>
  <path class="cls-26" d="m55 138.9c-0.5 1.5-2 3.1-4 3.6l-3 2.5"/>
  <path class="cls-21" d="m44.5 145.9c0.6-1.4 2.6-3.9 3.6-3.9 1.4-1 4.9-2.1 5-3.1l-0.1-1.4c2-2.6-3-6.5-3-6.5l4 3.5 2 3.5-0.5 3.4-2.5 2.6-3.5 1.5-5 0.4z"/>
  <path class="cls-21" d="m46.1 147.5v1.5l0.4 1.5 1.5-1.5 0.5-1.5 0.5-0.5h-1l-1.9 0.5z"/>
  <path class="cls-23" d="m46.1 149v1.5h0.4v-1l-0.4-0.5z"/>
  <path class="cls-17" d="m12.5 150.5c-1-2 1.6-8 4-9 3-0.5 6-0.1 9 1.5l2 0.5-4 3.5c-4 2.9-9.5 4.5-11 3.5z"/>
  <path class="cls-3" d="m13 148 5.1-2 4.4-1.5 3.4-1-3.4 2-5 1.5-4.5 3 5.1-2.5 3.4-1.5 3.5-2 1.5-1-2-1-3 0.5-7 1 7-0.5 3-0.5-2-1h-3l-3.6 0.5-0.9 1 6.1-0.5 2.4-0.5 2 1-11.5 2-0.5 1 8-1 2-0.5 1.5-1-2.5 2-9 1.5-0.5 1z"/>
  <path class="cls-21" d="m22.5 99-1 1-0.4 1.5-3.6 4.9-3.4 4 5.9 2.1 11 5v-1.5l-0.5-3.5-2-5.6-2-3.9-3-3.6-1-0.4z"/>
  <path class="cls-17" d="m22.5 100 3 3.5 3 5.5 2 6.5-3-6-3-5.5-3-3.1v0.6l3 4 5 10.5-4.5-6-3.5-5.5-2-1.5-0.5 0.5 2.5 2 6 9.5-4.4-5-4.6-4.1-0.4 0.5 7.4 8.6-8-7.6-0.4 0.5 6.9 7.1-7.5-6.1-1 1 6.9 4.6 8.1 3h0.5v-3l-1.5-5.5-2-5-3-4-2-1z"/>
  <path class="cls-17" d="m29.5 128 2-0.5 3-0.6 0.5-2 2.5-3.9-3.5-2-1.5 0.4-0.5 4.6-1.5 0.5-1 1.5v2z"/>
  <path class="cls-23" d="m0 122.5v0.5l2.5 3 3.6 2.9 3.9 4.1 1.5 1 1.6 0.9-4.6-3.9-3-3.5-5.5-5z"/>
  <path class="cls-27" d="m65 126.9 1-0.9 1.5-0.1-0.5-1-1.1-1.9 0.1-1.5 0.5-0.5v-1h0.6l0.4 0.5 1-0.5 0.6-1h1.9l1 1.5 0.1 1 2-2.5 0.8 0.1 1.2 1.8 0.8 0.1v2l-1.4 3 1 0.9 0.5 2.5-1.5 2-2 0.1-1.5-1-0.5 1-1.5 1-1.5-1-1-0.6-2-0.4-0.5-3.6z"/>
  <path class="cls-10" d="m68.5 122 1.5 1.9 0.5-1.9 0.5 2 1.5-2.5-0.5 2 2-0.5-1 1.5 2-0.5-1.5 1 1.5 0.5-2.5 0.5 1.5 1h-1l1.5 2-2-1.5 0.6 1.4-1.1-0.9 0.5 1.4-1-1.4-0.5 1.4-1-0.4v-0.5l-1.5-0.5 0.6-0.5-1.6-0.6 2.5 0.1-2-1.5h1.5l-1.5-1.5 2 0.5-1.5-2.5z"/>
  <path class="cls-27" d="m70 127 0.5-1.5-1-1 1.5 0.5v-1.5l0.5 1.5 1-1-0.5 1.5 1.5-0.6-1 1.6h1.5l-1.5 0.5 1 1-1.4-0.5 0.4 1.5-1-1.5-0.5 1.4-0.5-1.4-1 0.5 0.5-1z"/>
  <path class="cls-28" d="m70.5 126.5 0.5-1h1v1l-0.5 0.5-1-0.5z"/>
  <path class="cls-3" d="m70.5 126.5 0.5-0.5 0.5 0.5-0.5 0.5-0.5-0.5z"/>
  <path class="cls-21" d="m54.5 143.9 0.5 1.6 1.5 0.4 1.5-1.4 5.5-0.5 0.4 0.5-0.4-0.5h-5.5l-1.5 1.5h-1l-1-1.6z"/>
  <path class="cls-9" d="m147.5 100h2.5v13.9l-1 0.6-1.5-4.5-0.6-3.5 0.2-4.5 0.4-2z"/>
  <path class="cls-17" d="m147.5 105 0.6 5.5 0.4 4-1-4.5-0.4-3.5 0.4-1.5z"/>
  <path class="cls-13" d="m149 114h1v1l-1-0.1v-0.9z"/>
  <path class="cls-3" d="m148.1 114.5-2.6 1.5-2 2-2 3.9-2.1 5.6 0.6 4.9 5 0.1 5-0.6v-16.4l-1.9-1z"/>
  <path class="cls-17" d="m142.5 120.5-1 4-1 1-0.5 1.4 0.5 1.1 2.5 0.9 4.5-0.4 2.5 0.9v-12.9h-1.5c-1.4 0-2.4 2-2 3.5h-1l-0.5-1.5-0.9-0.5-1.6 2.5z"/>
  <path class="cls-3" d="m140 126-0.5 1.5-0.4 0.5 0.3 1.9 2.1 1.6 4 0.5 4.5-0.1v-2l-2.5 0.6h-4.5l-2.5-1-0.5-1.5 0.5-1.1-0.5-0.9z"/>
  <path class="cls-13" d="m140 131 3 0.5h2.5l3.5-0.5 1-1v1.5l-1.5 0.5-4.5 0.4-4-0.4v-1z"/>
  <path class="cls-13" d="m148.5 132.4-0.4 1.1 0.9 1.5-1.5 1.9 1-0.5 1.5-2.5-0.5-1.5h-1z"/>
  <path class="cls-13" d="m140 133.9v0.6l3 1.5h-1.5l-1.5-1.1-0.5-0.9 0.5-0.1z"/>
  <path class="cls-13" d="m137.5 131 2.5 0.5 0.5 0.4-3-0.4v-0.5z"/>
  <path class="cls-13" d="m147.5 129.5 0.4 0.5 0.6-0.1-0.4-0.5-0.6 0.1z"/>
  <path class="cls-15" d="m141.5 122-0.4 0.5-0.6 1.5 0.4 2h0.6l0.6-1.5v-1.6l-0.6-0.9z"/>
  <path class="cls-21" d="m69 64.5c-2.5 1-3.5 3-3 6-1 0.5-2 1.5-2 3l-3.5 2.4-2.4 3.1-0.1 3.5 3 4.4 4.5 0.6 4-0.4 9-2.2 0.5-0.4-2.5-0.5-0.5-2.5-3.5-3c-3.5-2.5-4-7.5-0.6-7.5-2.4-2.5 0.1-5 1.6-4.5l-4.5-2z"/>
  <path class="cls-16" d="m58.1 80.9c0 2.6 1.9 5.1 3.4 6 4.5 1 10 0.5 17-2l-2-0.9-0.5-2.5-3.5-3c-3.5-2.5-4-7.5-0.6-7.5-2.4-2.5 0.1-5 1.6-4.5l-3.5-2c-2.9 0.4-4.5 3-3.5 6-1.5 1-2 2-2 3.5-3 1-6.4 3.5-6.4 6.9z"/>
  <path class="cls-15" d="m68 82c0 1.5 1.5 2.9 3.5 2.9s4-1.4 4-2.9c0-1.6-1.5-3-3.5-3s-4 1.5-4 3z"/>
  <path class="cls-3" d="m68.5 82c0 1.5 1.5 2.5 3 2.5 1.6 0 3-1 3-2.5s-1-2-2.5-2c-2 0-3.5 1-3.5 2z"/>
  <path class="cls-15" d="m69.5 82c0 1 1 2 2.5 2 1.1 0 2.5-1 2.5-2s-1-1.5-2.5-1.5c-1 0-2.5 0.5-2.5 1.5z"/>
  <path class="cls-3" d="m71 81 0.5 0.5 1-0.6 0.6 0.1v-0.5h-1.6l-0.5 0.5z"/>
  <path class="cls-23" d="m46.5 82.5v1.5l2.5 1 4.1 1.4 7.3 0.5-1.9-2.9-1-3.5-3-0.5-5-0.5-2 0.5-1 2.5z"/>
  <path class="cls-21" d="m79.9 70.5 0.1 1.5 1 1.4 1.5 0.1 1 1v3.5l-2 1.5-1 1.5-1 2.5 0.5 1h1.5l4-3 1.6-2v-3l-1.1-3.1-1.5 0.5-2-1.9-2.6-1.5z"/>
  <path class="cls-13" d="m81 84.5-2 2.5 0.5 0.5 1.5-1 1.5-2.5-1.5 0.5z"/>
  <path class="cls-9" d="m80 85.9-1 1.1 0.5 0.5 1.5-2-1 0.4z"/>
  <path class="cls-11" d="m87.5 80.5-0.4 0.4 3.9-0.9m-2.5-2 2-1.1"/>
  <path class="cls-3" d="m48 85.5-1.5 3.4-0.6 3.6 0.2 4.5 2.4-0.1 4.6-3.4 7.3-6.6-6.9-0.4-5.5-1z"/>
  <path class="cls-21" d="m46.5 95.9 4-2.4 5.6-4.6 1.4-2h-1.4l-3.6 3.6-6 4 4.5-2 4.5-4 1-1.6h-1l-4 3.1-5.4 2.5 4.4-1.5 4.5-3.5-1-0.6-3.5 1.1-4 0.9 4.5-0.9 2.5-1.1-2.5-0.9-3.9 1.5 2.9-1-2-1-1.5 3.4-0.6 3.6 0.2 3.9 3.9-1.9 5.5-4.5-0.5-0.6 2.5-2.5-1 2.6-6 5-4 1.9v-0.5z"/>
  <path class="cls-11" d="m43.5 99.4 4-1.5"/>
  <path class="cls-3" d="m117.5 0v5l1-5h-1z"/>
  <path class="cls-3" d="m118.5 0v3.5l1-3.5h-1z"/>
  <path class="cls-3" d="m119.5 0v4l1-4h-1z"/>
  <path class="cls-3" d="m120.5 0v3l1.6-3h-1.6z"/>
  <path class="cls-1" d="m128 48 4-5.6-1.5 1-2.5 4.6z"/>
  <path class="cls-17" d="m82.5 93 1 0.4 6.5-3.9 4-1.5 6-0.5h8.1l5.9 0.9 11.5 2.6 4.5 1.5 6.5-0.1 6.5-2 4.1-2.9 2.9-4.5v-4l-0.5 0.5c0 4-2 6.9-6.5 9.9-4 2.6-9 3.6-13 3.5-3.9 0-10-2.9-20-5-5-1-13.9-0.9-16.5 0.1l-4 1.4-6 4.1h-1v-0.5z"/>
  <path class="cls-13" d="m83.5 93.9 4.5-3 6-2.5 0.5 0.1 0.5 3 2.1 0.9 1.3 1.5 0.1 2-1.4 1.6-2.1 1.5-0.5 3.9-2 0.5-2-0.4-2-2.5-3-3-1-1.5 0.5-3-1.5 0.9z"/>
  <path class="cls-17" d="m83.5 93.9-1-0.9-1 1.5v3l1 3 4 2.5 3 0.9 7 2.5 4.5 1 4 0.1 2.5-0.6 1-2.9-1-3.5-3-3.5-0.5-4-4-4.1-1.9-1.4-4.1 0.5 0.5 3.5 2 0.5 1.9 1.9 0.1 2-1.4 1.6-2.1 1.5-0.5 3.9-2 0.5-2-0.4-2-2.5-3-3-1-1.5 0.5-3-1.5 0.9z"/>
  <path class="cls-13" d="m104 87.5h-5.5l1 1.4 0.5 3.1 1.5 0.5 2 1.5 0.5 1v2.5l1.5 0.4 3 2.1 1.5 4-3.5 3.5 4.4 0.4 6.6-0.4 5-0.6 9.5-2.9 6.5-2.5 5-4 3.6-3.5 2.9-3.5v-11.5l-0.5 3-2 3.9-3.5 3.1-4 2-5.5 1.5-4.5 0.4-4.5-1.4-6.5-1.5-7.5-2-7.5-0.5z"/>
  <path class="cls-3" d="m98.1 87.5-4.1 0.4 0.5 0.1 0.5 3.5 2.1 0.9 1.3 1.5 0.1 2-1.4 1.6-2.1 1.5-0.5 3.9 1.5 1 3 1.1 5 2.4 1 0.1h1.5l1.5-0.6 1.5-1.9-1-5-3-3-1.5-0.1v-1.9l-0.5-1-2-1.5-1.5-0.5-0.5-3.1-1.4-1.4z"/>
  <path class="cls-3" d="m101.5 87.5 1 1.4v2l1.5 0.6 0.5 3v2.5h1l2 1 1 1.5 1.5-2 1.5-1 1-0.6v-1.4l2-1.1 1-0.9v-2.6l-1.5-0.9-6.9-0.5-5.6-1z"/>
  <path class="cls-15" d="m96 101.5c0 1.5 1.5 3 3 3s3-1.1 3-2.6-1.5-2.9-3-2.9c-1.9 0-3 1-3 2.5z"/>
  <path class="cls-3" d="m96.5 101.9c0 1.1 1 2.1 2.5 2.1s2.5-1 2.5-2c0-1.1-1-2-2.5-2s-2.5 1-2.5 1.9z"/>
  <path class="cls-15" d="m97.1 102c0 0.9 0.9 1.5 1.9 1.5s2.1-0.5 2.1-1.5-1.1-1.6-2.1-1.6-1.9 1.1-1.9 1.6z"/>
  <path class="cls-3" d="m97.9 101 0.6 0.5 1-1.1-1 0.1-0.6 0.5z"/>
  <path class="cls-26" d="m82.5 94v4l1 2 3.6 2.5-0.6 0.5 1 3.4-1-0.9-0.4-2-3.6-3.5-1-2.5v-3l1-1.5"/>
  <path class="cls-8" d="m100.5 105c3.5 0 5-2 6-4.5"/>
  <path class="cls-11" d="m78.1 100 3.9 0.5m-3.1-2.1 2.6-0.4"/>
  <path class="cls-6" d="m87.9 91c1.1-2.1 2.6-3 5.6-3"/>
  <path class="cls-30" d="m22.5 3.5 9 3"/>
  <path class="cls-30" d="m23.5 2 9 4"/>
  <path class="cls-30" d="m24.5 1 10 5.5"/>
  <path class="cls-30" d="m26.1 0.5 10 6.4"/>
  <path class="cls-3" d="m91.5 20.9c1-1.4 3.5-2.9 5.6-3.4 5.4-1 6-0.5 7.9 0.4 2.5 1.1 5 2.1 5 3l-5 11.5c-2 0-6-3.5-10-6.5-2.1-1.4-4-3.4-3.5-5z"/>
  <path class="cls-1" d="m92.5 20.5c3.5 0.5 11 7 14 9.5l-0.4 0.5c-2.6-2.5-9.6-9-13.6-10z"/>
  <path class="cls-1" d="m93.5 20c4.6 0.5 10.5 6.5 13 9.5l0.4-0.5c-3.4-3.5-7.9-8.6-13.4-9z"/>
  <path class="cls-1" d="m94.5 19.5c5.5 0 11 5.5 12.6 9l0.4-0.5c-2-3-6-8.5-13-8.5z"/>
  <path class="cls-1" d="m96.5 19c5.6 0 9.4 4.5 11 8.5l0.6-0.5c-1.6-3-5.1-8-11.6-8z"/>
  <path class="cls-1" d="m100.5 19c3 1 6.6 3.5 7.6 6.9l0.4-0.9c-1.4-3-4.5-5.5-8-6z"/>
  <path class="cls-1" d="m104 19c1.9 1 4.5 4 5 6l0.5-1c-0.5-1.5-3-4.5-5.5-5z"/>
  <path class="cls-1" d="m104.5 19c2 1 4 3 5 5v-3.1l0.5 1.1-0.5 2c1-2.5 0.5-3.1-5-5z"/>
  <path class="cls-1" d="m96.5 25 9 6.5 0.4-0.5-9.4-6z"/>
  <path class="cls-1" d="m99.5 27.5 5.5 3.9 0.5 0.1-6-4z"/>
  <path class="cls-3" d="m33.5 43.9c5.5-0.5 12 4.1 16.5 10.1l3.5 5.4-6-0.9-14.5-1.6-5.5-0.9 7.5 0.4 10.5 1.6 7 1.4-5-5.9-5.5-5.5-4.5-3-4-0.6v-0.5z"/>
  <path class="cls-9" d="m34 46c5 0 11 5.4 15 12.4l-1-0.4c-3-3-9-9.6-14.5-10.1l0.5-1.9z"/>
  <path class="cls-9" d="m33.5 47.9c3.5 0 10.5 6.1 13.6 10.1h-1.1c-3.5-3-9.5-8-12.5-8v-2.1z"/>
  <path class="cls-9" d="m32.5 49.5h1c3.6 1 8.5 5 11.6 8l-3 0.4c-3.1-2-8-5.4-10-6.4l0.4-2z"/>
  <path class="cls-9" d="m29.5 51.5 9 5 2.5 1h-2.5l-9.4-5.5h-1.6l2-0.5z"/>
  <path class="cls-9" d="m24.5 51.5 6.5 4.5h2l-8.5-4.5z"/>
  <path class="cls-1" d="m4.5 63h3.6l6 2 1.4 1.5-5-1.5-6.5-0.5 0.5-1.5z"/>
  <path class="cls-1" d="m5 61.5 3.1 0.5 4.4 2 2 1.5-2-1-4.4-1.5h-2.6l-0.5-1.5z"/>
  <path class="cls-1" d="m6.1 60.5 2 0.4 5 3.1-2.6-1-4.4-1v-1.5z"/>
  <path class="cls-1" d="m17.1 78.5 7.9-0.5 7.5 1.4v0.6l-7-1.1-8.4-0.4z"/>
  <path class="cls-1" d="m17.5 76.9 5-0.4 7 1 1.5 1.5-5.5-2.1h-8z"/>
  <path class="cls-1" d="m18.5 75 4 0.5 5 1h1.6l0.4 0.4-7-1.4-4-0.5z"/>
  <path class="cls-1" d="m19.5 73.5 6 2 3 0.4-4-0.9-5-1.5z"/>
  <path class="cls-1" d="m20.5 72 6 3.5h1l-7-3.5z"/>
  <path class="cls-26" d="m0.5 127.5 1.5-1 6.5 5.9 3 2.6"/>
  <path class="cls-17" d="m0 128 9.5 7 2 0.9-11.5-7.9z"/>
  <path class="cls-17" d="m0 129 10 6.9-10-5.9v-1z"/>
  <path class="cls-17" d="m0 130.9 10.5 5.1-10.5-3.5v-1.6z"/>
  <path class="cls-17" d="m0 132.9 11.5 3-11.5-1.4v-1.6z"/>
  <path class="cls-17" d="m0 134.9 11.5 1.5-11.5-0.4v-1.1z"/>
</svg>